<svg
					
					width="32"
					height="32"
					viewBox="0 0 24 24"
					fill="none"
					stroke="#A19CAF"
					xmlns="http://www.w3.org/2000/svg"
				>
					<path
						fill-rule="evenodd"
						clip-rule="evenodd"
						d="M16.2427 6.69886C17.3644 7.76766 17.9993 9.24943 17.9993 10.7989C17.9993 12.3483 17.3644 13.8301 16.2427 14.8989L11.9997 18.9989L7.75665 14.8989C6.63486 13.8301 6 12.3483 6 10.7989C6 9.24943 6.63486 7.76766 7.75665 6.69886C10.1318 4.43371 13.8675 4.43371 16.2427 6.69886Z"
						stroke="#A19CAF"
						stroke-width="1.5"
						stroke-linecap="round"
						stroke-linejoin="round"
					/>
					<path
						fill-rule="evenodd"
						clip-rule="evenodd"
						d="M14.3997 10.4429C14.391 11.0706 14.1332 11.6693 13.6831 12.107C13.233 12.5447 12.6274 12.7857 11.9997 12.7769C11.3719 12.7857 10.7663 12.5447 10.3162 12.107C9.8661 11.6693 9.60835 11.0706 9.59966 10.4429C9.6183 9.13594 10.6927 8.0915 11.9997 8.10986C13.3066 8.0915 14.381 9.13594 14.3997 10.4429V10.4429Z"
						stroke="#A19CAF"
						stroke-width="1.5"
						stroke-linecap="round"
						stroke-linejoin="round"
					/>
				</svg>