<svg
						width="112"
						height="111"
						viewBox="0 0 112 111"
						fill="none"
						xmlns="http://www.w3.org/2000/svg"
					>
						<path
							d="M56 62.4375C56.6598 62.4375 57.2102 62.2155 57.6511 61.7715C58.092 61.3275 58.3125 60.7787 58.3125 60.125V37C58.3125 36.3433 58.0905 35.7944 57.6465 35.3535C57.2025 34.9126 56.6521 34.6906 55.9954 34.6875C55.3386 34.6844 54.7898 34.9064 54.3489 35.3535C53.908 35.8006 53.6875 36.3494 53.6875 37V60.125C53.6875 60.7818 53.9095 61.3306 54.3535 61.7715C54.7975 62.2124 55.3479 62.4344 56.0046 62.4375M69.8796 55.5C70.5364 55.5 71.0852 55.278 71.5261 54.834C71.967 54.39 72.1875 53.8412 72.1875 53.1875V41.625C72.1875 40.9683 71.9655 40.4194 71.5215 39.9785C71.0775 39.5376 70.5271 39.3156 69.8704 39.3125C69.2136 39.3094 68.6648 39.5314 68.2239 39.9785C67.783 40.4256 67.5625 40.9744 67.5625 41.625V53.1875C67.5625 53.8443 67.7845 54.3931 68.2285 54.834C68.6725 55.2749 69.2229 55.4969 69.8796 55.5ZM42.1296 53.1875C42.7864 53.1875 43.3352 52.9655 43.7761 52.5215C44.217 52.0775 44.4375 51.5287 44.4375 50.875V41.625C44.4375 40.9683 44.2155 40.4194 43.7715 39.9785C43.3275 39.5376 42.7771 39.3156 42.1204 39.3125C41.4636 39.3094 40.9148 39.5314 40.4739 39.9785C40.033 40.4256 39.8125 40.9744 39.8125 41.625V50.875C39.8125 51.5318 40.0345 52.0806 40.4785 52.5215C40.9225 52.9624 41.4729 53.1844 42.1296 53.1875ZM32.875 79.7258C28.4813 75.7174 25.0711 71.2127 22.6445 66.2115C20.2179 61.2103 19.0031 56.0766 19 50.8103C19 40.552 22.5967 31.8308 29.7901 24.6466C36.9835 17.4625 45.7202 13.8719 56 13.875C64.3312 13.875 71.8607 16.411 78.5885 21.4831C85.3163 26.5552 89.6793 33.1073 91.6773 41.1394L96.4688 60.1158C96.7771 61.2874 96.5582 62.3543 95.812 63.3163C95.0658 64.2721 94.0699 64.75 92.8242 64.75H83.75V80.4056C83.75 82.4591 83.0177 84.2166 81.5531 85.6781C80.0885 87.1396 78.331 87.8719 76.2806 87.875H65.25V94.8125C65.25 95.4693 65.028 96.0181 64.584 96.459C64.14 96.8999 63.5896 97.1219 62.9329 97.125C62.2761 97.1281 61.7273 96.9061 61.2864 96.459C60.8455 96.0119 60.625 95.4631 60.625 94.8125V87.0286C60.625 85.9279 60.9827 85.0229 61.698 84.3138C62.4133 83.6046 63.3013 83.25 64.362 83.25H76.2806C77.11 83.25 77.7915 82.9833 78.3249 82.4499C78.8583 81.9165 79.125 81.235 79.125 80.4056V63.862C79.125 62.8013 79.4827 61.9133 80.198 61.198C80.9133 60.4827 81.8013 60.125 82.862 60.125H91.6125L87.2188 42.2031C85.4458 35.13 81.6379 29.4104 75.795 25.0444C69.9613 20.6815 63.363 18.5 56 18.5C47.0583 18.5 39.4271 21.6296 33.1063 27.8888C26.7854 34.1541 23.625 41.7699 23.625 50.7363C23.625 55.3428 24.57 59.7211 26.4601 63.8713C28.3471 68.0214 31.025 71.7091 34.4937 74.9343L37.5 77.7V94.8125C37.5 95.4693 37.278 96.0181 36.834 96.459C36.39 96.8999 35.8396 97.1219 35.1829 97.125C34.5261 97.1281 33.9773 96.9061 33.5364 96.459C33.0955 96.0119 32.875 95.4631 32.875 94.8125V79.7258Z"
							fill="#F6D475"
						/>
						<path
							d="M32.875 79.7258C28.4813 75.7174 25.0711 71.2127 22.6445 66.2115C20.2179 61.2103 19.0031 56.0766 19 50.8103C19 40.552 22.5967 31.8308 29.7901 24.6466C36.9835 17.4625 45.7202 13.8719 56 13.875C64.3312 13.875 71.8607 16.411 78.5885 21.4831C85.3163 26.5552 89.6793 33.1073 91.6773 41.1394L96.4688 60.1158C96.7771 61.2874 96.5582 62.3543 95.812 63.3163C95.0658 64.2721 94.0699 64.75 92.8242 64.75H83.75V80.4056C83.75 82.4591 83.0177 84.2166 81.5531 85.6781C80.0885 87.1396 78.331 87.8719 76.2806 87.875H65.25V94.8125C65.25 95.4693 65.028 96.0181 64.584 96.459C64.14 96.8999 63.5896 97.1219 62.9329 97.125C62.2761 97.1281 61.7273 96.9061 61.2864 96.459C60.8455 96.0119 60.625 95.4631 60.625 94.8125V87.0286C60.625 85.9279 60.9827 85.0229 61.698 84.3138C62.4133 83.6046 63.3013 83.25 64.362 83.25H76.2806C77.11 83.25 77.7915 82.9833 78.3249 82.4499C78.8583 81.9165 79.125 81.235 79.125 80.4056V63.862C79.125 62.8013 79.4827 61.9133 80.198 61.198C80.9133 60.4827 81.8013 60.125 82.862 60.125H91.6125L87.2188 42.2031C85.4458 35.13 81.6379 29.4104 75.795 25.0444C69.9613 20.6815 63.363 18.5 56 18.5C47.0583 18.5 39.4271 21.6296 33.1063 27.8888C26.7854 34.1541 23.625 41.7699 23.625 50.7363C23.625 55.3428 24.57 59.7211 26.4601 63.8713C28.3471 68.0214 31.025 71.7091 34.4937 74.9343L37.5 77.7V94.8125C37.5 95.4693 37.278 96.0181 36.834 96.459C36.39 96.8999 35.8396 97.1219 35.1829 97.125C34.5261 97.1281 33.9773 96.9061 33.5364 96.459C33.0955 96.0119 32.875 95.4631 32.875 94.8125V79.7258Z"
							fill="white"
						/>
					</svg>