<svg
						width="70"
						height="64"
						viewBox="0 0 70 64"
						fill="none"
						xmlns="http://www.w3.org/2000/svg"
					>
						<path
							fill-rule="evenodd"
							clip-rule="evenodd"
							d="M0 59.6869C0 57.6408 0 55.5946 0 53.5485C0.524165 52.1625 1.5559 51.5535 3.06815 51.7108C3.06815 51.2711 3.06815 50.9572 3.06815 50.643C3.06815 37.6908 3.06779 24.7385 3.06959 11.7863C3.06959 11.3776 3.07356 10.9674 3.10566 10.5605C3.26656 8.50889 4.64425 6.71923 6.61104 6.1424C7.31702 5.93533 8.08757 5.87689 8.82891 5.87616C20.4406 5.86029 32.052 5.86715 43.6637 5.85668C44.0605 5.85632 44.4688 5.77155 44.852 5.65828C45.7971 5.37834 46.1885 4.58794 46.5742 3.76724C47.4162 1.97722 48.2949 1.40652 50.2293 1.62188C51.4064 1.75283 52.3313 1.45161 53.2613 0.775209C54.6924 -0.265905 55.8201 -0.235238 57.2876 0.728316C57.5344 0.890291 57.7584 1.11756 58.029 1.2063C58.591 1.39101 59.1714 1.53494 59.7548 1.6327C60.0596 1.68393 60.3868 1.60024 60.7046 1.58004C62.1588 1.48841 63.2684 2.08148 63.8193 3.41912C64.337 4.67741 65.1458 5.49738 66.4084 6.01541C67.8066 6.58936 68.3849 7.74988 68.2525 9.25672C68.2345 9.46018 68.2413 9.66725 68.2096 9.86819C68.0703 10.7531 68.3373 11.4973 68.8651 12.2159C69.2608 12.7556 69.5205 13.3948 69.8405 13.9897C69.8405 14.3533 69.8405 14.717 69.8405 15.0806C69.5137 15.6993 69.2525 16.3659 68.8434 16.9244C68.3128 17.6484 68.0981 18.3969 68.2045 19.2786C68.2615 19.7483 68.2493 20.2306 68.2251 20.7054C68.1865 21.473 67.851 22.1227 67.2323 22.5647C66.8416 22.8442 66.7655 23.166 66.7659 23.6022C66.7742 32.7107 66.772 41.8191 66.7734 50.9276C66.7734 51.1683 66.7962 51.4092 66.8113 51.7184C68.3272 51.5618 69.3145 52.1949 69.8401 53.5474C69.8401 55.5935 69.8401 57.6397 69.8401 59.6858C69.6399 60.2111 69.4978 60.7677 69.2301 61.2554C68.1288 63.2608 66.3539 64.0022 64.1299 64C48.0197 63.9841 31.9095 63.9917 15.7993 63.9913C12.3682 63.9913 8.93713 64.0011 5.50607 63.9877C2.98121 63.978 1.10136 62.7525 0.319259 60.6415C0.203098 60.328 0.106059 60.0058 0 59.6869ZM9.27262 12.0211C9.27262 25.2894 9.27262 38.4736 9.27262 51.7159C9.60523 51.7159 9.87543 51.7159 10.1453 51.7159C15.5781 51.7159 21.011 51.7159 26.4438 51.7159C26.7847 51.7159 27.126 51.7094 27.4665 51.7177C28.9438 51.7537 29.8767 52.6686 29.9373 54.1502C29.9557 54.604 29.9701 55.0614 29.9369 55.5134C29.8936 56.1061 30.1223 56.3006 30.7219 56.2937C33.1764 56.2649 35.6316 56.2815 38.0869 56.2815C39.8888 56.2815 39.8888 56.2815 39.8978 54.5001C39.9076 52.5986 40.7939 51.7169 42.7048 51.7162C48.3649 51.7148 54.025 51.7159 59.6851 51.7159C59.9745 51.7159 60.2638 51.7159 60.5921 51.7159C60.5921 43.6153 60.5921 35.6024 60.5921 27.5318C59.6848 27.4939 58.8496 27.3034 58.0127 27.8759C55.5762 29.5429 55.0373 29.496 52.5615 27.9152C52.1185 27.6328 51.516 27.5274 50.9756 27.4874C50.0583 27.4196 49.1322 27.4686 48.2084 27.4686C48.2304 35.505 40.6006 41.9688 32.3077 40.3278C24.9478 38.8718 20.2184 31.3654 22.1083 23.9986C24.0553 16.4096 32.7053 11.5839 40.8794 15.4507C40.5079 14.1596 41.0299 13.1178 41.8347 12.0211C41.4408 12.0211 41.2009 12.0211 40.9606 12.0211C39.3239 12.0211 37.6872 12.0262 36.0508 12.0157C35.759 12.0139 35.4437 12.0063 35.1822 11.8981C34.7049 11.7001 34.5231 11.2841 34.6252 10.7794C34.7446 10.1889 35.1659 9.97713 35.7262 9.97677C37.681 9.97533 39.6359 9.97533 41.5908 9.97497C41.8303 9.97497 42.0699 9.97497 42.3415 9.97497C42.3415 9.24662 42.3415 8.62289 42.3415 7.92918C42.0558 7.92918 41.7881 7.92918 41.5201 7.92918C30.5635 7.92918 19.6069 7.92881 8.65034 7.92918C6.30368 7.92954 5.11827 9.10196 5.11791 11.436C5.11574 24.5975 5.11683 37.7589 5.11683 50.9204C5.11683 51.1618 5.11683 51.4031 5.11683 51.6657C5.84157 51.6657 6.46494 51.6657 7.16118 51.6657C7.16118 51.3032 7.16118 50.9893 7.16118 50.6755C7.16118 37.9231 7.16045 25.1707 7.16262 12.4187C7.16298 10.6734 7.86067 9.97605 9.59658 9.97569C16.5067 9.97389 23.4171 9.97461 30.3276 9.97605C30.5545 9.97605 30.7854 9.96992 31.0072 10.0071C31.5274 10.0944 31.8059 10.4306 31.8272 10.9454C31.8481 11.4584 31.6028 11.8332 31.0913 11.9508C30.7861 12.0208 30.46 12.0182 30.1436 12.0186C23.4832 12.0218 16.8231 12.0211 10.1626 12.0211C9.87327 12.0211 9.58467 12.0211 9.27262 12.0211ZM34.8463 61.9463C44.5284 61.9463 54.2108 61.9463 63.8929 61.9455C64.188 61.9455 64.4845 61.9495 64.7785 61.929C66.6093 61.8013 67.7806 60.5588 67.7926 58.7226C67.8019 57.3817 67.7951 56.0408 67.7947 54.6996C67.7943 53.7642 67.7936 53.762 66.8492 53.762C58.8486 53.7613 50.8487 53.7617 42.8484 53.7617C42.7347 53.7617 42.6208 53.7692 42.5078 53.762C42.098 53.7357 41.9371 53.9345 41.9425 54.3327C41.9498 54.9236 41.9642 55.5167 41.9198 56.1043C41.8228 57.3879 40.8704 58.3121 39.597 58.32C36.4834 58.3388 33.3694 58.3381 30.2558 58.3208C28.9784 58.3135 28.0264 57.394 27.9207 56.1159C27.885 55.687 27.8998 55.253 27.8987 54.8215C27.8951 53.7627 27.8969 53.762 26.8673 53.762C21.1628 53.7617 15.458 53.762 9.75314 53.762C7.43498 53.762 5.11647 53.7721 2.79867 53.7548C2.26476 53.7508 2.01766 53.8839 2.03389 54.485C2.07321 55.9384 2.03136 57.394 2.05193 58.8485C2.07033 60.1194 2.64138 61.1104 3.81164 61.6082C4.39425 61.8561 5.08833 61.9315 5.73226 61.9329C15.4367 61.9524 25.1415 61.9463 34.8463 61.9463ZM66.2774 9.43421C66.6035 8.53162 65.8719 7.85125 64.6371 7.39924C63.3471 6.92738 62.6508 5.86102 62.1761 4.63809C61.8698 3.85166 61.3475 3.47035 60.4918 3.63629C58.8861 3.94761 57.4817 3.52229 56.2404 2.48875C55.6015 1.95665 54.9691 1.97073 54.3327 2.49778C53.1105 3.51039 51.7393 3.89494 50.1438 3.65721C49.0435 3.49307 48.8487 3.62619 48.4244 4.66226C47.8288 6.11534 46.8451 7.10162 45.3884 7.6918C44.3588 8.10919 44.2304 8.36856 44.3938 9.48688C44.6034 10.9154 44.3025 12.1679 43.431 13.3313C42.5702 14.4807 42.5706 14.6358 43.4317 15.7855C44.287 16.9273 44.6009 18.1531 44.401 19.5607C44.2308 20.7606 44.3419 20.9601 45.4501 21.4593C46.8242 22.078 47.8386 23.0376 48.3887 24.4322C48.7307 25.2984 49.2953 25.6058 50.1874 25.4607C51.7325 25.2089 53.086 25.6133 54.3219 26.5891C55.1563 27.2475 55.42 27.2479 56.2584 26.5917C57.4965 25.6234 58.8471 25.2136 60.3944 25.456C61.3338 25.6032 61.9099 25.1876 62.2338 24.3291C62.7526 22.9539 63.7212 22.0466 65.0794 21.4803C66.2359 20.9979 66.3005 20.8612 66.1757 19.6163C66.0343 18.2021 66.2673 16.9327 67.1605 15.7686C68.035 14.6293 68.0101 14.5005 67.154 13.3198C66.4181 12.3036 65.9607 11.2307 66.2774 9.43421ZM43.497 34.5443C45.7167 31.7013 46.4977 28.6541 45.9245 25.2302C45.756 24.2248 45.3458 23.5986 44.3603 23.1783C42.6777 22.4611 42.1518 21.4182 42.3469 19.5834C42.3949 19.1336 42.2629 18.8771 41.9296 18.6066C37.5948 15.0918 31.2305 15.3768 27.1631 19.2804C23.1062 23.1736 22.5737 29.5415 25.9344 34.001C26.0495 34.1536 26.1887 34.2875 26.3673 34.487C27.1602 32.3063 28.5228 30.6876 30.4059 29.5328C29.6674 27.96 29.5621 27.2417 29.7053 24.8871C29.859 22.3583 31.837 20.2588 34.307 20.003C36.939 19.7306 39.3996 21.3403 39.9545 23.8861C40.3672 25.7796 40.3975 27.7132 39.4372 29.5411C41.3531 30.7121 42.6799 32.3326 43.497 34.5443ZM34.842 38.5475C37.2449 38.5165 39.418 37.8488 41.3744 36.483C41.6673 36.2784 41.8076 36.0757 41.703 35.6969C41.1767 33.7929 40.097 32.3084 38.3805 31.3229C38.1836 31.2099 37.8113 31.2247 37.6039 31.3358C35.8221 32.2889 34.0491 32.329 32.2879 31.3279C31.9354 31.1273 31.6898 31.1515 31.3669 31.3524C29.7518 32.356 28.6938 33.764 28.1685 35.5923C28.0484 36.0093 28.1303 36.2488 28.4889 36.4967C30.4113 37.825 32.5372 38.4923 34.842 38.5475ZM64.7244 24.3352C64.6696 24.3226 64.614 24.31 64.5588 24.2977C64.3986 24.6076 64.2522 24.9261 64.0743 25.2255C63.7857 25.7114 63.5484 26.258 63.1562 26.6429C62.7699 27.0228 62.6714 27.395 62.6721 27.8979C62.6837 35.4397 62.6768 42.9818 62.6833 50.5232C62.6844 51.8966 62.4914 51.6596 63.868 51.7306C64.5534 51.766 64.7432 51.573 64.741 50.8714C64.7154 42.2618 64.724 33.6522 64.724 25.043C64.7244 24.8071 64.7244 24.5708 64.7244 24.3352ZM38.141 26.0112C38.1251 26.0105 38.1092 26.0098 38.0937 26.0091C38.0937 25.6689 38.1143 25.3269 38.0901 24.9885C37.9707 23.3013 36.6237 22.0362 34.9488 22.0268C33.2348 22.017 31.8554 23.2818 31.7529 24.9993C31.7111 25.6995 31.7107 26.408 31.7598 27.1079C31.8691 28.6746 33.1158 29.8817 34.6872 29.9935C36.2521 30.105 37.6973 29.0758 38.0183 27.5679C38.1259 27.0632 38.1038 26.5311 38.141 26.0112Z"
							fill="white"
						/>
						<path
							fill-rule="evenodd"
							clip-rule="evenodd"
							d="M34.9203 42.8487C38.7608 42.8487 42.6009 42.8469 46.4414 42.8495C48.2866 42.8506 49.1946 43.7643 49.2033 45.6175C49.2051 46.0489 49.2058 46.4811 49.2029 46.9126C49.1917 48.7109 48.2751 49.6564 46.4789 49.6643C43.2297 49.6788 39.9801 49.669 36.7308 49.669C35.7763 49.669 34.8218 49.6784 33.8676 49.6647C32.9996 49.6524 32.5635 49.2783 32.5841 48.6009C32.6043 47.9493 33.0148 47.6257 33.8727 47.625C37.9855 47.6203 42.0984 47.6236 46.2113 47.6221C47.1427 47.6221 47.155 47.6063 47.1575 46.6636C47.1626 44.8949 47.1626 44.8949 45.3971 44.8949C38.1709 44.8949 30.9448 44.8949 23.7187 44.8949C22.6866 44.8949 22.6769 44.896 22.687 45.8902C22.7072 47.8707 22.4117 47.6052 24.4247 47.6211C25.8107 47.6315 27.197 47.6167 28.583 47.6261C29.3731 47.6315 29.8478 48.0352 29.8334 48.6571C29.8197 49.2524 29.3637 49.6557 28.6115 49.6618C26.7937 49.6769 24.9752 49.6943 23.1581 49.656C21.5687 49.6225 20.665 48.6528 20.6405 47.0489C20.6329 46.5489 20.6358 46.0489 20.6397 45.5489C20.6531 43.7827 21.5748 42.8516 23.3316 42.8495C27.1942 42.8459 31.0574 42.8487 34.9203 42.8487Z"
							fill="#F4C952"
						/>
						<path
							fill-rule="evenodd"
							clip-rule="evenodd"
							d="M52.5368 17.5803C55.1659 14.9465 57.7312 12.3758 60.2979 9.80587C60.4743 9.62946 60.6413 9.43646 60.8426 9.29289C61.291 8.9729 61.7513 9.00465 62.1427 9.38451C62.5352 9.76582 62.5706 10.2247 62.2708 10.6839C62.1611 10.8524 62.0017 10.9902 61.8574 11.1345C59.2568 13.7366 56.6565 16.3386 54.0534 18.9382C52.9635 20.0269 52.1151 20.0236 51.0177 18.9317C50.2128 18.1308 49.4077 17.3303 48.61 16.5219C48.0502 15.9544 47.9849 15.3552 48.4145 14.9079C48.8709 14.4328 49.469 14.4927 50.0754 15.0959C50.8788 15.896 51.6721 16.7066 52.5368 17.5803Z"
							fill="#F4C952"
						/>
					</svg>