<svg
							width="68"
							height="73"
							viewBox="0 0 68 73"
							fill="none"
							xmlns="http://www.w3.org/2000/svg"
						>
							<path
								fill-rule="evenodd"
								clip-rule="evenodd"
								d="M57.7564 45.5179C58.488 45.5666 59.1391 45.6372 59.7914 45.6476C62.9307 45.7023 64.4743 47.1896 64.4311 50.3288C64.4103 51.8823 64.9219 53.0626 66.0267 54.1422C68.2614 56.3261 68.2696 58.5406 66.0519 60.7316C64.9608 61.8101 64.3123 62.9816 64.4365 64.5307C64.4409 64.5833 64.4316 64.6369 64.4278 64.69C64.216 67.9939 63.1621 69.1119 59.8428 69.1939C58.2084 69.2339 56.9826 69.7882 55.8406 70.9368C53.7432 73.0456 51.4954 73.0331 49.4335 70.8853C48.3326 69.7384 47.1085 69.189 45.5583 69.2169C45.1096 69.2251 44.6576 69.1545 44.2095 69.0993C42.3939 68.8787 41.2147 67.7007 41.0144 65.8823C40.9186 65.0112 40.8623 64.1362 40.8021 63.2618C40.7118 61.9551 39.6896 61.2574 38.9159 60.4093C38.8021 60.284 38.4163 60.3414 38.1788 60.4027C22.0634 64.5734 5.51293 54.0771 1.33893 38.6243C-2.99376 22.5844 6.53673 5.73736 22.4814 1.24708C41.3279 -4.06126 57.4625 8.29661 60.952 24.6873C62.4584 31.7647 61.4811 38.5187 58.053 44.9056C57.966 45.0676 57.8926 45.2356 57.7564 45.5179ZM55.7082 43.7094C60.3681 35.8676 60.6204 24.0148 53.6322 14.261C46.5454 4.37048 34.4229 0.251205 22.8016 3.79703C11.4073 7.27391 3.23333 17.843 2.9061 29.4955C2.78244 33.8927 3.54303 38.1111 5.35698 42.1253C7.15944 46.1138 9.73509 49.502 13.2552 52.3852C13.2552 49.7592 13.2213 47.3412 13.2623 44.9248C13.3422 40.1702 17.1195 36.2911 21.8812 36.2265C27.9392 36.1455 33.9994 36.1745 40.0574 36.2205C42.8617 36.2418 45.1069 37.5059 46.8327 39.6968C47.9452 41.1097 48.4962 42.7513 48.6757 44.5532C52.4459 41.8216 52.6155 41.8014 55.7082 43.7094ZM46.0601 45.6088C46.5208 42.0241 43.5189 38.7754 39.7126 38.7568C33.9173 38.7278 28.1214 38.7349 22.326 38.7535C18.5159 38.7655 15.8221 41.4873 15.8046 45.3067C15.792 48.0449 15.8161 50.7836 15.7898 53.5217C15.7849 54.064 15.9485 54.371 16.4235 54.6571C20.4864 57.108 24.8886 58.4449 29.6163 58.696C32.3074 58.8394 34.9668 58.5827 37.6344 57.8834C37.456 56.5176 38.0426 55.4402 38.9427 54.5729C40.3266 53.241 40.9493 51.7351 40.9263 49.7647C40.8979 47.3335 42.1695 46.1023 44.5837 45.7236C45.0521 45.6503 45.5331 45.6482 46.0601 45.6088ZM65.2037 57.4665C65.0467 57.1469 64.94 56.8137 64.7402 56.5516C64.4196 56.1297 64.0508 55.7433 63.6798 55.3647C62.506 54.1691 61.9205 52.7392 61.9052 51.0654C61.8806 48.3869 61.7339 48.2402 59.056 48.2046C57.3859 48.1833 55.9517 47.6088 54.7528 46.4367C52.778 44.5062 52.5569 44.4733 50.5772 46.4093C49.3411 47.618 47.9288 48.1756 46.2177 48.1991C43.5884 48.2353 43.4368 48.418 43.4144 51.026C43.3996 52.7283 42.807 54.1784 41.6103 55.3942C39.7088 57.3264 39.7099 57.571 41.6108 59.5047C42.8059 60.7206 43.4029 62.1691 43.4149 63.873C43.4325 66.4935 43.6152 66.6774 46.2226 66.6938C47.9249 66.7053 49.3805 67.288 50.5958 68.4864C50.992 68.8771 51.421 69.2355 51.8467 69.595C52.3375 70.0109 52.8666 70.0333 53.3744 69.6421C53.8784 69.2541 54.3939 68.8683 54.8333 68.4125C55.9742 67.23 57.358 66.7381 58.9794 66.7048C61.7783 66.6468 61.8636 66.5329 61.9074 63.7532C61.9331 62.1406 62.5028 60.754 63.6245 59.5907C64.0108 59.1896 64.3966 58.7841 64.7413 58.348C64.9306 58.1083 65.033 57.8003 65.2037 57.4665Z"
								fill="white"
							/>
							<path
								fill-rule="evenodd"
								clip-rule="evenodd"
								d="M41.3629 23.3242C41.3624 28.9587 36.6187 33.6503 30.9443 33.6274C25.2787 33.6049 20.587 28.9642 20.5684 23.362C20.5482 17.3997 25.0253 12.8591 30.946 12.8351C36.8409 12.8115 41.3635 17.3653 41.3629 23.3242ZM30.9564 30.9915C35.462 30.9937 38.8064 27.646 38.8092 23.1316C38.8114 18.8619 35.2765 15.3472 30.9755 15.3434C26.6735 15.339 23.1315 18.8443 23.1238 23.1136C23.1156 27.6257 26.4584 30.9893 30.9564 30.9915Z"
								fill="white"
							/>
							<path
								fill-rule="evenodd"
								clip-rule="evenodd"
								d="M50.4367 59.5714C52.4394 57.9993 54.3951 56.4639 56.3508 54.929C56.7475 54.6182 57.136 54.2959 57.5409 53.996C58.2731 53.4543 58.9472 53.5069 59.4304 54.1263C59.8988 54.7277 59.7959 55.4565 59.1097 56.0015C57.032 57.6508 54.9412 59.2831 52.8548 60.9219C52.2709 61.3805 51.6941 61.8494 51.0966 62.2904C50.3781 62.8207 49.7046 62.7485 49.1459 62.053C48.0657 60.7096 47.0025 59.352 45.9508 57.9857C45.4178 57.2929 45.5037 56.5646 46.1253 56.1006C46.718 55.6584 47.4063 55.7586 47.9371 56.4108C48.7699 57.4368 49.5776 58.4831 50.4367 59.5714Z"
								fill="#F4C952"
							/>
						</svg>