<svg
						width="76"
						height="74"
						viewBox="0 0 76 74"
						fill="none"
						xmlns="http://www.w3.org/2000/svg"
					>
						<path
							fill-rule="evenodd"
							clip-rule="evenodd"
							d="M55.106 69.8251C54.2882 71.7325 52.9442 72.9578 50.92 73.3582C50.6292 73.416 50.327 73.4393 50.0298 73.4401C48.1347 73.4476 46.2395 73.4674 44.3451 73.4381C41.3591 73.3927 39.054 71.0939 38.9761 68.1245C38.9001 65.2565 41.077 62.7979 43.9898 62.6428C46.1026 62.5304 48.2284 62.549 50.3432 62.6365C52.4381 62.7231 53.9452 63.8365 54.8544 65.7127C55.0467 66.1103 55.2489 66.2579 55.6841 66.2456C57.6509 66.1878 59.6335 66.3034 61.5821 66.0929C65.0029 65.7237 67.6628 62.7002 67.7661 59.2703C67.8049 57.9788 67.7724 56.6855 67.7724 55.4989C66.9629 55.1614 66.1779 54.949 65.5192 54.5351C64.0778 53.6299 63.26 52.2795 63.2509 50.5556C63.2248 45.7188 63.2121 40.882 63.2545 36.0455C63.2743 33.7594 64.8482 31.922 67.0773 31.3824C67.2699 31.3361 67.4614 31.2811 67.6494 31.2316C67.2909 18.4703 56.6467 4.70991 40.1342 3.76312C23.3316 2.79891 10.0556 15.8277 9.17286 31.1924C9.36673 31.2514 9.57089 31.3258 9.78059 31.3768C12.0489 31.9287 13.6081 33.763 13.6279 36.0993C13.669 40.8863 13.6853 45.6737 13.6263 50.4599C13.5856 53.7446 10.7511 55.8783 7.3865 55.2797C3.96016 54.67 1.29266 52.1129 1.03589 48.579C0.778317 45.0363 0.847169 41.4513 1.04223 37.9003C1.18387 35.3219 2.72731 33.4267 4.975 32.1665C5.37026 31.945 5.51704 31.7135 5.55938 31.2589C6.86028 17.0724 14.0655 7.10003 27.3823 2.09583C46.1691 -4.96418 67.0242 7.04544 70.7548 26.7532C71.0369 28.2429 71.1643 29.7626 71.3222 31.2728C71.3645 31.6795 71.4587 31.924 71.848 32.1412C74.5385 33.6376 75.9201 35.9593 75.9679 39.0271C76.0119 41.8691 76.0087 44.7123 75.9687 47.5538C75.9268 50.592 74.5673 52.9038 71.9236 54.4121C71.4801 54.6653 71.3705 54.9371 71.3657 55.4083C71.3491 57.1508 71.465 58.9197 71.2075 60.6297C70.4071 65.9497 65.9445 69.7388 60.5597 69.8203C58.7413 69.848 56.9225 69.8251 55.106 69.8251ZM66.8217 43.2551C66.8217 45.5728 66.8106 47.8909 66.8264 50.2087C66.8343 51.2892 67.4005 51.8043 68.466 51.7687C70.5515 51.6987 72.3228 49.9602 72.3655 47.7885C72.4237 44.7985 72.4205 41.8066 72.3667 38.8167C72.3291 36.7395 70.6686 35.0061 68.701 34.8352C67.4147 34.7232 66.8284 35.24 66.8232 36.525C66.8141 38.7688 66.8205 41.0121 66.8217 43.2551ZM10.0548 43.3034C10.0548 41.0355 10.0548 38.7672 10.0548 36.4993C10.0548 36.4495 10.0556 36.3996 10.0532 36.3498C10.0128 35.3163 9.47315 34.8036 8.44565 34.8233C6.37402 34.8637 4.55877 36.6089 4.51327 38.7696C4.44917 41.784 4.45472 44.8017 4.5109 47.8162C4.54968 49.8569 6.19676 51.5689 8.13704 51.7521C9.47197 51.8779 10.0484 51.3699 10.0532 50.033C10.0607 47.7896 10.0552 45.5467 10.0548 43.3034ZM47.1416 69.8555C48.0642 69.8555 48.9869 69.871 49.9091 69.8516C51.0221 69.8282 51.7786 69.0876 51.7893 68.047C51.8004 66.9997 51.0696 66.2223 49.9546 66.2033C48.1101 66.1712 46.2644 66.1712 44.4199 66.2037C43.3033 66.2227 42.5567 67.0053 42.5706 68.0367C42.5844 69.0781 43.3437 69.8263 44.4488 69.8512C45.3461 69.8714 46.2442 69.8551 47.1416 69.8555Z"
							fill="white"
						/>
						<path
							fill-rule="evenodd"
							clip-rule="evenodd"
							d="M26.9434 48.5308C25.6065 48.1039 24.2973 47.8847 23.1883 47.2917C20.5243 45.8669 19.225 43.5096 19.2088 40.4971C19.1823 35.4359 19.1593 30.3744 19.2143 25.3144C19.2634 20.7343 22.5315 17.5596 27.121 17.5513C34.6756 17.5382 42.2298 17.5367 49.7836 17.5521C54.3383 17.5616 57.5977 20.7106 57.659 25.2661C57.7275 30.3514 57.7255 35.4387 57.6594 40.5236C57.6005 45.1021 54.3162 48.2547 49.7262 48.2721C46.7098 48.2831 43.6929 48.257 40.6765 48.2954C40.2844 48.3006 39.8013 48.494 39.5204 48.7654C37.4044 50.8094 35.3538 52.9202 33.2339 54.9594C31.3593 56.7636 28.323 56.172 27.309 53.812C27.0617 53.2363 26.9869 52.5593 26.958 51.9235C26.905 50.7346 26.9434 49.5405 26.9434 48.5308ZM30.5351 52.2863C30.596 52.3196 30.6566 52.3528 30.7171 52.3857C30.911 52.206 31.1108 52.0319 31.2987 51.846C33.4028 49.7562 35.5219 47.6802 37.5991 45.5638C38.2234 44.9276 38.898 44.6614 39.7858 44.6705C43.0508 44.7049 46.3157 44.6863 49.5806 44.6835C52.4471 44.6807 54.0823 43.0574 54.0863 40.1925C54.0926 35.3327 54.0926 30.4729 54.0863 25.6127C54.0827 22.7403 52.4637 21.1395 49.5766 21.1387C42.1748 21.1371 34.7725 21.1375 27.3707 21.1383C24.3815 21.1391 22.7962 22.7146 22.7942 25.6946C22.791 30.5042 22.7926 35.3145 22.7958 40.1244C22.7958 40.4476 22.8053 40.7733 22.8409 41.0942C23.0399 42.8912 24.3333 44.3001 26.1181 44.581C26.8255 44.6922 27.5566 44.6724 28.2775 44.68C29.9385 44.6974 30.5323 45.2754 30.5351 46.9237C30.5379 48.7112 30.5351 50.4988 30.5351 52.2863Z"
							fill="#F4C952"
						/>
						<path
							fill-rule="evenodd"
							clip-rule="evenodd"
							d="M38.4236 30.5391C39.8645 30.5288 41.0974 31.7554 41.0942 33.1963C41.0903 34.6389 39.8531 35.8626 38.4145 35.8464C36.9957 35.8302 35.8067 34.646 35.7826 33.2244C35.7581 31.7862 36.9739 30.5494 38.4236 30.5391Z"
							fill="white"
						/>
						<path
							fill-rule="evenodd"
							clip-rule="evenodd"
							d="M27.0705 33.2224C27.055 31.7648 28.2491 30.5482 29.7031 30.5391C31.1583 30.53 32.3536 31.7312 32.3504 33.1995C32.3473 34.6385 31.2011 35.812 29.7641 35.8468C28.3255 35.8816 27.0859 34.6737 27.0705 33.2224Z"
							fill="white"
						/>
						<path
							fill-rule="evenodd"
							clip-rule="evenodd"
							d="M49.8058 33.1963C49.8034 34.6492 48.5829 35.8614 47.1375 35.8468C45.6784 35.8317 44.5049 34.6211 44.5247 33.1512C44.5444 31.7138 45.7124 30.5494 47.1443 30.5391C48.5931 30.5292 49.8078 31.7415 49.8058 33.1963Z"
							fill="white"
						/>
					</svg>