<svg width="137" height="37" viewBox="0 0 137 37" fill="none" xmlns="http://www.w3.org/2000/svg">
<path d="M14.0255 24.4359V19.6837H26.0049C26.1589 21.5758 25.9939 23.3578 25.5099 25.0299C25.0259 26.7019 24.2669 28.165 23.2328 29.419C22.1988 30.6731 20.9007 31.6631 19.3387 32.3891C17.7766 33.0932 15.9836 33.4452 13.9595 33.4452C12.0894 33.4452 10.3624 33.1482 8.77831 32.5541C7.21625 31.9601 5.85221 31.1241 4.68616 30.0461C3.54212 28.946 2.65109 27.637 2.01307 26.1189C1.37505 24.5789 1.05604 22.8848 1.05604 21.0367C1.05604 19.1887 1.38605 17.5166 2.04607 16.0206C2.7061 14.5245 3.63013 13.2485 4.81817 12.1924C6.00621 11.1144 7.40326 10.3004 9.00932 9.75035C10.6154 9.17833 12.3534 8.89232 14.2235 8.89232C15.9176 8.89232 17.4246 9.14533 18.7447 9.65134C20.0867 10.1354 21.2637 10.8064 22.2758 11.6644C23.2878 12.5004 24.1679 13.4575 24.9159 14.5355L19.0747 17.3406C18.6127 16.5046 17.9966 15.8006 17.2266 15.2285C16.4566 14.6565 15.4555 14.3705 14.2235 14.3705C13.0575 14.3705 11.9794 14.6235 10.9894 15.1295C9.99935 15.6356 9.20732 16.3836 8.6133 17.3736C8.04128 18.3637 7.75527 19.5847 7.75527 21.0367C7.75527 22.4668 8.03028 23.7098 8.5803 24.7659C9.13032 25.7999 9.88935 26.5919 10.8574 27.142C11.8254 27.692 12.9475 27.967 14.2235 27.967C14.9935 27.967 15.6756 27.89 16.2696 27.736C16.8636 27.56 17.3806 27.318 17.8206 27.01C18.2606 26.6799 18.6347 26.2949 18.9427 25.8549C19.2727 25.4149 19.5367 24.9419 19.7347 24.4359H14.0255ZM35.0859 21.0367C35.0859 22.2688 35.3279 23.3688 35.8119 24.3369C36.2959 25.2829 36.978 26.0309 37.858 26.5809C38.738 27.109 39.7721 27.373 40.9601 27.373C42.1702 27.373 43.2042 27.109 44.0622 26.5809C44.9423 26.0309 45.6243 25.2829 46.1083 24.3369C46.5923 23.3688 46.8343 22.2688 46.8343 21.0367C46.8343 19.7827 46.6033 18.6827 46.1413 17.7366C45.6793 16.7906 45.0083 16.0536 44.1282 15.5256C43.2702 14.9755 42.2142 14.7005 40.9601 14.7005C39.7721 14.7005 38.738 14.9755 37.858 15.5256C36.978 16.0536 36.2959 16.7906 35.8119 17.7366C35.3279 18.6827 35.0859 19.7827 35.0859 21.0367ZM28.3207 21.0367C28.3207 19.2107 28.6397 17.5606 29.2777 16.0866C29.9377 14.5905 30.8398 13.3145 31.9838 12.2584C33.1278 11.1804 34.4589 10.3554 35.9769 9.78335C37.517 9.18933 39.178 8.89232 40.9601 8.89232C42.7862 8.89232 44.4582 9.18933 45.9763 9.78335C47.5163 10.3554 48.8584 11.1804 50.0024 12.2584C51.1465 13.3145 52.0265 14.5905 52.6425 16.0866C53.2805 17.5606 53.5996 19.2107 53.5996 21.0367C53.5996 22.8408 53.2915 24.5019 52.6755 26.0199C52.0595 27.538 51.1905 28.858 50.0684 29.9801C48.9464 31.0801 47.6043 31.9381 46.0423 32.5541C44.5022 33.1482 42.8082 33.4452 40.9601 33.4452C39.112 33.4452 37.418 33.1482 35.8779 32.5541C34.3379 31.9381 32.9958 31.0801 31.8518 29.9801C30.7298 28.858 29.8607 27.538 29.2447 26.0199C28.6287 24.5019 28.3207 22.8408 28.3207 21.0367Z" fill="#2AAE5C"/>
<path d="M72.4702 20.0467L76.5294 8.00127H84.1857L73.9223 32.5211L66.299 19.7827L58.7088 32.5211L48.4454 8.00127H56.1017L60.1608 20.0467L66.299 6.84623L72.4702 20.0467ZM82.6292 23.5118C82.6292 21.8838 83.0142 20.4757 83.7842 19.2877C84.5543 18.0996 85.6103 17.1866 86.9523 16.5486C88.3164 15.8885 89.8454 15.5585 91.5395 15.5585C93.2556 15.5585 94.7846 15.8885 96.1267 16.5486C97.4687 17.1866 98.5247 18.0996 99.2948 19.2877C100.087 20.4757 100.483 21.8838 100.483 23.5118C100.483 25.1179 100.087 26.5149 99.2948 27.703C98.5247 28.891 97.4687 29.815 96.1267 30.4751C94.7846 31.1131 93.2556 31.4321 91.5395 31.4321C89.8454 31.4321 88.3164 31.1131 86.9523 30.4751C85.6103 29.815 84.5543 28.891 83.7842 27.703C83.0142 26.5149 82.6292 25.1179 82.6292 23.5118ZM88.5034 23.5118C88.5034 24.2158 88.6354 24.8209 88.8994 25.3269C89.1854 25.8109 89.5594 26.1849 90.0214 26.4489C90.4835 26.6909 90.9895 26.8119 91.5395 26.8119C92.0895 26.8119 92.5955 26.6909 93.0576 26.4489C93.5196 26.1849 93.8936 25.8109 94.1796 25.3269C94.4656 24.8209 94.6086 24.2158 94.6086 23.5118C94.6086 22.8078 94.4656 22.2138 94.1796 21.7297C93.8936 21.2237 93.5196 20.8387 93.0576 20.5747C92.5955 20.3107 92.0895 20.1787 91.5395 20.1787C90.9895 20.1787 90.4835 20.3107 90.0214 20.5747C89.5594 20.8387 89.1854 21.2237 88.8994 21.7297C88.6354 22.2138 88.5034 22.8078 88.5034 23.5118ZM108.883 15.9215V31.1021H103.306V15.9215H108.883ZM113.206 21.7628C112.964 21.4987 112.689 21.2897 112.381 21.1357C112.095 20.9597 111.732 20.8717 111.292 20.8717C110.852 20.8717 110.445 20.9927 110.071 21.2347C109.697 21.4767 109.4 21.8398 109.18 22.3238C108.982 22.8078 108.883 23.4128 108.883 24.1388L107.695 21.8618C107.695 20.6517 107.937 19.5737 108.421 18.6276C108.905 17.6816 109.543 16.9336 110.335 16.3836C111.149 15.8115 111.996 15.5255 112.876 15.5255C113.426 15.5255 113.954 15.6575 114.46 15.9215C114.966 16.1636 115.34 16.4716 115.582 16.8456L113.206 21.7628ZM117.517 5.36117H122.963V31.1021H117.517V5.36117ZM128.441 15.9215H135.206L128.738 22.1918L135.866 31.1021H129.233L121.972 22.1918L128.441 15.9215Z" fill="black"/>
<mask id="mask0_238_2708" style="mask-type:luminance" maskUnits="userSpaceOnUse" x="31" y="0" width="32" height="32">
<path d="M62.2266 31.0766V0.0160446H31.4668V31.0766H62.2266Z" fill="white" stroke="white" stroke-width="0.0330012"/>
</mask>
<g mask="url(#mask0_238_2708)">
<path d="M43.5217 12.1922L43.4192 9.43927L41.5452 7.55353L41.5364 7.54572L41.5413 7.53497C42.3796 5.70207 42.0499 3.45005 40.552 1.94513C39.3564 0.743957 37.6862 0.289674 36.1331 0.584778C35.7252 0.662059 35.5004 0.773249 35.3928 0.896301C35.3395 0.957438 35.3148 1.02252 35.3108 1.08771C35.3068 1.15305 35.3238 1.22039 35.3547 1.2879C35.4168 1.42357 35.5348 1.55627 35.6497 1.66681C35.7069 1.72193 35.7634 1.77117 35.8108 1.81232C35.8576 1.85294 35.8966 1.88638 35.9192 1.909L38.0237 4.02423C38.7658 4.76973 38.7977 5.96876 38.1165 6.75275L38.1145 6.7547C37.334 7.43898 36.1399 7.40751 35.3977 6.66193L33.2932 4.54767C33.2707 4.52505 33.2372 4.48555 33.1965 4.43829C33.1556 4.39065 33.1069 4.33372 33.052 4.27618C32.942 4.16078 32.8091 4.04266 32.6741 3.98029C32.6069 3.94927 32.5399 3.93232 32.4749 3.93634C32.4101 3.94038 32.3462 3.96495 32.2854 4.01837C32.1628 4.12632 32.0518 4.35248 31.9749 4.76251C31.6812 6.32271 32.1329 7.99987 33.3284 9.20099C34.8264 10.7059 37.0682 11.0372 38.8928 10.1951L38.9036 10.1902L38.9124 10.199L40.8958 12.1922H43.5217Z" fill="#DEDEDE" stroke="black" stroke-width="0.0330012"/>
<path fill-rule="evenodd" clip-rule="evenodd" d="M44.6956 16.0463L45.7826 19.2883L50.6669 22.0758L52.1426 23.5655C51.3072 25.4008 51.6358 27.656 53.1286 29.163C54.3202 30.3658 55.9841 30.8203 57.5317 30.5248C59.1564 30.2154 57.9272 29.3513 57.7526 29.175L55.6623 27.065C54.9313 26.3271 54.9005 25.1398 55.5716 24.3639C56.3403 23.6865 57.5163 23.7176 58.2473 24.4555L60.3376 26.5656C60.5123 26.7418 61.3682 27.9826 61.6747 26.3426C61.9674 24.7804 61.5172 23.1006 60.3256 21.8978C58.8328 20.3909 56.5987 20.0591 54.7807 20.9024L53.2605 19.3678C52.7828 19.4957 52.2538 19.3713 51.8823 18.9963C51.3277 18.4364 51.3277 17.5204 51.8823 16.9605L52.7777 16.055C52.1443 16.6943 51.1069 16.6943 50.4734 16.055C49.9615 15.5382 49.8622 14.7554 50.179 14.135C49.6003 14.8954 46.815 12.1424 46.6951 12.0215C45.4865 11.0416 42.1892 13.2882 44.6956 16.0463Z" fill="#DEDEDE"/>
<path fill-rule="evenodd" clip-rule="evenodd" d="M51.8926 16.9412C51.3395 17.5077 51.3395 18.4343 51.8926 19.0006C52.2631 19.38 52.7906 19.5059 53.2669 19.3765C53.5079 19.3114 53.7277 19.1817 53.9037 19.0006L56.0547 16.7979C56.6078 16.2315 56.6078 15.3049 56.0547 14.7385C55.5016 14.1721 54.5967 14.1721 54.042 14.7385L54.0095 14.7717L52.7855 16.0252L51.8926 16.9412Z" fill="#F4C952"/>
<path fill-rule="evenodd" clip-rule="evenodd" d="M48.6066 10.9113L48.1367 11.3823L47.8434 11.8103C47.1882 12.7628 48.7473 14.6487 50.2087 14.0005L51.5225 13.6636L51.7129 12.4258L52.1451 11.9926C52.7797 11.3566 52.7797 10.3148 52.1451 9.67864C51.5106 9.04264 50.4711 9.04264 49.8364 9.67864L48.9857 10.5313L48.6066 10.9113Z" fill="#F4C952"/>
<path fill-rule="evenodd" clip-rule="evenodd" d="M47.5433 7.33414L45.8391 9.04105C44.661 10.2209 46.4856 12.1586 48.1538 11.3594L49.5228 10.9495L49.8581 9.65251C50.4944 9.01522 50.4944 7.97142 49.8581 7.33414C49.2218 6.69685 48.1796 6.69685 47.5433 7.33414Z" fill="#F4C952"/>
<path fill-rule="evenodd" clip-rule="evenodd" d="M40.5703 13.8308C40.6474 15.1176 40.0538 16.4183 38.2936 18.1911L36.3823 20.1178L37.4392 24.3604L42.7354 26.5224L45.7996 23.4334C46.9474 22.2763 47.1703 22.5254 48.5257 22.7209C49.1331 22.809 49.9995 22.4821 50.6961 22.0498L44.7118 16.0153C45.4445 14.8479 45.5182 13.5023 44.8319 12.6599C44.8233 12.6496 44.8302 12.6444 44.8371 12.6513L45.899 13.7219C46.9164 14.713 49.1022 15.5535 50.2071 14.1024C50.2242 14.0713 50.2414 14.0384 50.2603 14.0073C50.4266 13.5558 49.6323 12.8312 48.8174 12.0079L48.1878 11.3731L45.8785 9.04515L45.453 8.61618C45.1133 8.2738 44.554 8.2738 44.2126 8.61794L43.4354 9.40145L41.4349 11.4181C41.2154 11.6395 41.0369 11.8972 40.9014 12.1757C40.6474 12.6945 40.5377 13.2826 40.5703 13.8308Z" fill="#F4C952"/>
<path fill-rule="evenodd" clip-rule="evenodd" d="M39.3828 2.91357C40.8078 4.34625 40.9832 6.26279 40.2938 8.04626C40.1701 8.36251 40.3506 8.49037 40.5929 8.73406L42.2466 10.3948L42.2535 10.5849L43.4189 9.41324L41.5453 7.52778C42.3841 5.69247 42.054 3.43721 40.5551 1.93023C39.3587 0.727407 37.6879 0.27292 36.1339 0.568463C35.1283 0.758552 35.2108 1.16119 35.4652 1.48266C36.8679 1.36166 38.3135 1.84037 39.3828 2.91357Z" fill="#DEDEDE"/>
<path fill-rule="evenodd" clip-rule="evenodd" d="M47.3279 10.5269L48.1596 11.3667L48.6295 10.8923L49.0085 10.5096L49.8591 9.65075C50.4936 9.0101 50.4936 7.96081 49.8591 7.32016C49.5984 7.05872 49.2726 6.90464 48.933 6.8561C49.4338 7.50198 49.3892 8.44391 48.8027 9.03784L47.9521 9.89492L47.3279 10.5269Z" fill="#F4C952"/>
<path fill-rule="evenodd" clip-rule="evenodd" d="M51.0498 11.2723L49.5232 12.81C49.9743 13.3213 50.2955 13.7116 50.1848 14.0129C50.2524 13.8996 50.3714 13.7951 50.4635 13.7013L52.1474 11.9907C52.7781 11.3502 52.7781 10.301 52.1474 9.66041C51.9057 9.41594 51.5943 9.25539 51.2577 9.20163C51.6702 9.83874 51.602 10.7113 51.0498 11.2723Z" fill="#F4C952"/>
<g filter="url(#filter0_d_238_2708)">
<path fill-rule="evenodd" clip-rule="evenodd" d="M51.5979 18.5525C51.6661 18.716 51.7667 18.869 51.898 19.0029C52.268 19.3802 52.7948 19.5055 53.2706 19.3768C53.5113 19.3121 53.7308 19.183 53.9066 19.0029L56.055 16.8118C56.6075 16.2484 56.6075 15.3268 56.055 14.7633C55.8555 14.5599 55.6117 14.4295 55.3543 14.3738C55.5759 14.9024 55.477 15.5424 55.0541 15.9719L52.9057 18.163C52.7302 18.3434 52.5106 18.4725 52.2697 18.5369C52.0501 18.5959 51.8199 18.6012 51.5979 18.5525Z" fill="#F4C952"/>
</g>
<path fill-rule="evenodd" clip-rule="evenodd" d="M54.9138 22.3439C58.1402 21.4476 60.365 23.1867 61.6755 26.3421C61.9688 24.7808 61.5177 23.1021 60.3238 21.9001C58.8281 20.3941 56.5896 20.0624 54.7679 20.9053L53.2447 19.3717C52.7661 19.4994 52.2362 19.3751 51.8639 19.0003C51.7318 18.8673 51.6306 18.7154 51.562 18.553C51.339 18.028 51.4385 17.3925 51.8639 16.9658L52.761 16.0609C52.1264 16.6999 51.0869 16.6999 50.4522 16.0609C50.3685 15.9773 50.2943 15.8846 50.2309 15.7845C49.9171 15.2889 49.893 14.6585 50.1572 14.1421C49.0526 15.5911 44.8774 12.7293 45.85 13.7621L53.3682 21.7325C54.1779 22.5909 53.8931 22.6271 54.9138 22.3439Z" fill="#DEDEDE"/>
<path fill-rule="evenodd" clip-rule="evenodd" d="M45.8776 13.7564C46.8984 14.7466 49.0913 15.5864 50.1998 14.1366C50.217 14.1055 50.2342 14.0727 50.2532 14.0416C50.365 13.7409 50.0449 13.3158 49.5767 12.8233C49.1618 13.1793 48.6506 13.3106 48.1221 13.2916C48.0998 13.2899 48.0791 13.2899 48.0567 13.2882C47.1186 13.2311 46.1341 12.7075 45.5437 12.1338L45.3216 11.9109C45.1702 11.7606 45.1495 11.7364 44.9653 11.5533C44.8534 11.4133 44.6395 11.5278 44.6043 11.5982C44.4805 11.846 44.4876 11.9506 44.5289 12.2116C44.5634 12.438 44.7295 12.6056 44.8173 12.6868C45.165 13.0342 45.857 13.7357 45.8776 13.7564Z" fill="#F4C952"/>
<path fill-rule="evenodd" clip-rule="evenodd" d="M32.5925 23.9278L38.9448 30.3237C39.0985 30.4788 39.2976 30.5799 39.5126 30.6121H39.8299C40.0451 30.5803 40.2443 30.4791 40.3978 30.3237L42.6981 28.0075C43.0979 27.6051 43.0979 26.9469 42.6981 26.5445L36.3459 20.1486C35.9461 19.7461 35.2926 19.7461 34.8929 20.1486L32.5925 22.4648C32.1928 22.8672 32.1928 23.5254 32.5925 23.9278Z" fill="black"/>
<path fill-rule="evenodd" clip-rule="evenodd" d="M37.1038 28.4679L38.935 30.3214C39.0891 30.4777 39.2886 30.5796 39.5041 30.6121H39.8222C40.032 30.5808 40.2315 30.4833 40.3914 30.3214L42.6972 27.9876C43.0978 27.582 43.0978 26.9189 42.6972 26.5134L40.8642 24.6581C41.2648 25.0636 41.2648 25.7267 40.8642 26.1322L38.5584 28.4661C38.4047 28.6222 38.2059 28.7246 37.991 28.7585H37.6712C37.4566 28.7245 37.2581 28.6229 37.1038 28.4679Z" fill="black"/>
<path fill-rule="evenodd" clip-rule="evenodd" d="M44.352 22.0438L41.2842 25.1326L42.6975 26.5524L45.764 23.4637C46.9131 22.3067 47.1364 22.5557 48.4934 22.7511C49.1014 22.8394 49.9689 22.5125 50.6663 22.0801L49.2561 20.6585C49.0792 20.7675 48.8919 20.8712 48.7012 20.9612C48.1361 21.2293 47.5367 21.3952 47.0815 21.3296C45.7261 21.1341 45.5011 20.8868 44.352 22.0438Z" fill="#F4C952"/>
<path d="M48.1757 11.3667L48.6421 10.894L49.8626 9.65703C50.4925 9.0187 50.4925 7.97321 49.8626 7.33489C49.2328 6.6965 48.2013 6.6965 47.5714 7.33489L45.8845 9.04458" stroke="black" stroke-width="0.198007" stroke-miterlimit="10" stroke-linecap="round" stroke-linejoin="round"/>
<path d="M56.0547 14.7385C55.5016 14.1721 54.5951 14.1721 54.042 14.7385L51.8926 16.9414C51.3395 17.5078 51.3395 18.4345 51.8926 19.0009C52.4457 19.5673 53.3506 19.5673 53.9037 19.0009L56.0547 16.798C56.6078 16.2316 56.6078 15.305 56.0547 14.7385Z" stroke="black" stroke-width="0.198007" stroke-miterlimit="10" stroke-linecap="round" stroke-linejoin="round"/>
<path d="M51.9342 12.2088L52.1674 11.9734C52.7786 11.3357 52.7718 10.3095 52.1486 9.67868C51.5187 9.04273 50.4869 9.04273 49.8569 9.67868L49.0125 10.5312" stroke="black" stroke-width="0.198007" stroke-miterlimit="10" stroke-linecap="round" stroke-linejoin="round"/>
<path d="M51.6756 25.86C51.643 25.0765 51.7905 24.2844 52.1217 23.5597L44.6581 16.0343M53.2421 19.3586L54.7656 20.8944C56.5878 20.0504 58.8268 20.3825 60.323 21.8906C61.5172 23.0944 61.9685 24.7756 61.6751 26.3391C61.3679 27.9805 60.5101 26.7386 60.335 26.5622L58.24 24.4504C57.5074 23.7119 56.3287 23.6808 55.5584 24.3587C54.8858 25.1353 54.9167 26.3236 55.6492 27.0621L57.7442 29.1739C57.9192 29.3503 59.1512 30.2151 57.5229 30.5247C55.9718 30.8205 54.3041 30.3656 53.11 29.1618C52.7474 28.7953 52.4434 28.3741 52.2092 27.9131M43.3816 9.42046L41.5114 7.53347C42.3487 5.69667 42.0192 3.43959 40.5231 1.93145C39.329 0.727656 37.6613 0.272739 36.1102 0.568523C34.4819 0.878099 35.7139 1.74291 35.8889 1.9193L37.9838 4.0311C38.7164 4.76965 38.7473 5.95788 38.0748 6.73441C37.3044 7.41244 36.1257 7.38127 35.3931 6.64278L33.2981 4.53098C33.1231 4.35453 32.2652 3.1127 31.958 4.75409C31.6647 6.31765 32.1159 7.99878 33.3101 9.20257C34.8063 10.7107 37.0453 11.0428 38.8674 10.1988L40.8474 12.1947" stroke="black" stroke-width="0.198007" stroke-miterlimit="10" stroke-linecap="round" stroke-linejoin="round"/>
<path d="M40.1113 23.9348L42.6981 26.5361C43.0979 26.9381 43.0979 27.5954 42.6981 27.9973L40.3978 30.3107C39.998 30.7126 39.3445 30.7126 38.9448 30.3107L32.5925 23.9227C32.1928 23.5207 32.1928 22.8635 32.5925 22.4615L34.8929 20.1482C35.2926 19.7462 35.9461 19.7462 36.3459 20.1482L38.6206 22.4357" stroke="black" stroke-width="0.198007" stroke-miterlimit="10" stroke-linecap="round" stroke-linejoin="round"/>
<path d="M42.697 26.5224L45.7759 23.4487C46.9292 22.2974 47.1532 22.5452 48.5151 22.7397C49.1254 22.8274 49.996 22.5022 50.6959 22.0719" stroke="black" stroke-width="0.198007" stroke-miterlimit="10" stroke-linecap="round" stroke-linejoin="round"/>
<path fill-rule="evenodd" clip-rule="evenodd" d="M49.7373 14.561C49.4178 15.1796 49.5162 15.9624 50.0345 16.4791C50.6738 17.1202 51.7207 17.1202 52.36 16.4791L53.5452 16.0765L54.0652 14.7736C54.7062 14.1342 54.7062 13.087 54.0652 12.4477C53.426 11.8083 52.379 11.8083 51.7397 12.4477L50.0345 14.1532C49.9402 14.2469 49.8578 14.352 49.7892 14.466C49.7763 14.4999 49.7589 14.5319 49.7373 14.561Z" fill="#F4C952"/>
<path fill-rule="evenodd" clip-rule="evenodd" d="M53.0709 11.9682C53.4732 12.6049 53.3996 13.4647 52.85 14.0201L51.1604 15.7294C50.8043 16.0875 50.3216 16.2467 49.8542 16.2017C49.917 16.3023 49.9911 16.3952 50.075 16.4785C50.7084 17.1204 51.7459 17.1204 52.3793 16.4785L54.069 14.7709C54.7041 14.1308 54.7041 13.0824 54.069 12.4422C53.7916 12.1602 53.4372 12.0027 53.0709 11.9682Z" fill="#F4C952"/>
<path d="M54.0653 12.4477C53.4261 11.8083 52.3792 11.8083 51.74 12.4477L50.0349 14.1532C49.394 14.7943 49.394 15.8397 50.0349 16.4791C50.6741 17.1202 51.721 17.1202 52.3602 16.4791L54.0653 14.7736C54.7062 14.1342 54.7062 13.087 54.0653 12.4477Z" stroke="black" stroke-width="0.198007" stroke-miterlimit="10" stroke-linecap="round" stroke-linejoin="round"/>
<path d="M50.273 13.9348C50.3193 13.4788 49.5751 12.7904 48.8104 12.0171L45.4479 8.6169C45.1084 8.27359 44.5493 8.27359 44.2082 8.61866L41.432 11.4259C40.8011 12.0639 40.5181 13.002 40.5679 13.8447C40.645 15.1347 40.0517 16.4386 38.2924 18.2159L36.3823 20.1474M44.6986 12.5269C44.7277 12.558 45.8645 13.706 45.8937 13.7354C46.7939 14.6162 48.6097 15.3757 49.7809 14.5296" stroke="black" stroke-width="0.198007" stroke-miterlimit="10" stroke-linecap="round" stroke-linejoin="round"/>
</g>
<path d="M33.3794 11.1143C34.3175 12.3331 37.2259 13.6613 37.2261 15.0977C37.2261 15.3781 37.2356 15.6552 37.2505 15.9287C36.6553 16.4059 36.1744 17.0039 35.8071 17.7217C35.3232 18.6677 35.0816 19.7676 35.0815 21.0215C35.0815 22.2534 35.3232 23.3534 35.8071 24.3213C36.2911 25.2672 36.9732 26.0154 37.853 26.5654C38.7331 27.0935 39.7675 27.3574 40.9556 27.3574C42.1655 27.3574 43.1992 27.0934 44.0571 26.5654C44.1347 26.517 44.2092 26.4647 44.2837 26.4131C44.4512 26.4882 44.621 26.5619 44.7935 26.6309C46.3354 27.2256 48.032 27.5225 49.8823 27.5225C50.6153 27.5225 51.3237 27.4732 52.0083 27.3799C51.4774 28.3335 50.832 29.1968 50.064 29.9649C48.9419 31.0649 47.5996 31.9231 46.0376 32.5391C44.4976 33.1331 42.8035 33.4297 40.9556 33.4297C39.1076 33.4297 37.4135 33.133 35.8735 32.5391C34.3335 31.9231 32.9912 31.0649 31.8472 29.9649C30.7251 28.8428 29.8558 27.5229 29.2397 26.0049C28.6237 24.4868 28.3159 22.8256 28.3159 21.0215C28.3159 19.1955 28.6349 17.5453 29.2729 16.0713C29.933 14.5753 30.835 13.2992 31.979 12.2432C32.4181 11.8294 32.8852 11.4535 33.3794 11.1143Z" fill="#2AAE5C"/>
<path d="M135.286 33.8908C135.504 33.9086 135.705 34.0124 135.844 34.1815C135.982 34.3505 136.048 34.5708 136.027 34.7921C136.005 35.0133 135.898 35.2168 135.729 35.3557C135.56 35.4947 135.343 35.5578 135.125 35.533C134.267 35.4354 133.4 35.333 132.53 35.2287C117.042 33.2498 101.333 31.7036 85.8319 34.2577C84.9703 34.3977 84.1198 34.5478 83.2617 34.7119C84.1142 34.5209 84.9599 34.3437 85.8174 34.1765C101.235 31.1261 117.154 32.179 132.692 33.6695C133.563 33.7463 134.429 33.821 135.286 33.8908Z" fill="#2AAE5C"/>
<defs>
<filter id="filter0_d_238_2708" x="51.4659" y="14.3738" width="5.13559" height="5.31592" filterUnits="userSpaceOnUse" color-interpolation-filters="sRGB">
<feFlood flood-opacity="0" result="BackgroundImageFix"/>
<feColorMatrix in="SourceAlpha" type="matrix" values="0 0 0 0 0 0 0 0 0 0 0 0 0 0 0 0 0 0 127 0" result="hardAlpha"/>
<feOffset dy="0.132005"/>
<feGaussianBlur stdDeviation="0.0660023"/>
<feComposite in2="hardAlpha" operator="out"/>
<feColorMatrix type="matrix" values="0 0 0 0 0 0 0 0 0 0 0 0 0 0 0 0 0 0 0.25 0"/>
<feBlend mode="normal" in2="BackgroundImageFix" result="effect1_dropShadow_238_2708"/>
<feBlend mode="normal" in="SourceGraphic" in2="effect1_dropShadow_238_2708" result="shape"/>
</filter>
</defs>
</svg>
